<?xml version="1.0" encoding="utf-8"?>
<!-- Generator: Adobe Illustrator 24.0.3, SVG Export Plug-In . SVG Version: 6.00 Build 0)  -->
<svg version="1.1" id="Layer_1" xmlns="http://www.w3.org/2000/svg" xmlns:xlink="http://www.w3.org/1999/xlink" x="0px" y="0px"
	 viewBox="0 0 7001 1340" style="enable-background:new 0 0 7001 1340;" xml:space="preserve">
<style type="text/css">
	.st0{font-family:'SpaceGrotesk-Regular';}
	.st1{font-size:1136.6774px;}
	.st2{letter-spacing:11;}
	.st3{font-family:'SpaceGrotesk-SemiBold';}
</style>
<text transform="matrix(1 0 0 1 1498.4336 966.666)"><tspan x="0" y="0" class="st0 st1 st2">anti</tspan><tspan x="2072.12" y="0" class="st3 st1 st2">výtrus</tspan></text>
<g>
	<g>
		<path d="M578.82,1115.73h-24.5c-117.59,0-193.56-66.74-193.56-170.04c0-47.92,22.18-86.77,65.92-115.47
			c38.64-25.35,88.2-38.93,127.05-47.92l38.03-9.15c71.88-17,97.32-34.43,97.32-66.6c0-37.39-28.03-56.35-83.31-56.35h-24.5v-49
			h24.5c82.85,0,132.31,39.39,132.31,105.36c0,33.67-14.89,60.65-44.27,80.21c-25.87,17.22-60.36,26.88-90.68,34.05l-38.15,9.18
			c-108.87,25.19-155.23,59.78-155.23,115.7c0,75.79,54.04,121.04,144.56,121.04h24.5V1115.73z"/>
	</g>
	<g>
		<g>
			<path d="M593.19,1339.62c-79.44,0-157.87-26.74-222.59-77.95c-101.35-80.21-189.1-214.59-253.76-388.64
				C49.59,692.02,9.63,472.83,1.28,239.14l-1.01-28.36l28.2,3.13c22.67,2.52,45.64,3.79,68.25,3.79
				c87.06,0,171.15-17.91,249.93-53.22c76.14-34.13,143.48-82.68,200.17-144.31l18.21-19.8l18.02,19.97
				C639.89,83.36,707.72,133.03,784.64,168c79.6,36.18,164.65,54.53,252.79,54.53h72.09l-0.8,25.28
				c-6.88,216.87-41.65,424.8-100.53,601.33l-7.75,23.24l-46.49-15.51l7.75-23.24c55.12-165.23,88.57-359.09,97.11-562.1h-21.38
				c-95.18,0-187.06-19.82-273.07-58.92c-75.1-34.13-142.16-81.24-199.68-140.22C507.42,129.97,440.93,175.93,366.7,209.2
				c-85.13,38.16-175.96,57.5-269.98,57.5c-15.02,0-30.18-0.52-45.32-1.55c10.22,218.07,48.59,421.8,111.38,590.81
				c61.54,165.64,143.92,292.64,238.24,367.28c82.27,65.1,190.14,84.45,288.58,51.75c81.28-27.01,126.05-78.98,126.05-146.36
				c0-47.39-19.21-87.13-55.56-114.91c-37.34-28.54-90.37-43.63-153.34-43.63h-24.5v-49h24.5c73.83,0,137.14,18.57,183.1,53.7
				c48.93,37.41,74.8,90.6,74.8,153.84c0,88.87-58.17,159.16-159.6,192.86C668.44,1333.65,630.69,1339.62,593.19,1339.62z"/>
		</g>
	</g>
</g>
</svg>
